<svg xmlns="http://www.w3.org/2000/svg" width="21.818" height="22.082" viewBox="0 0 21.818 22.082"><defs><style>.a{fill:#ffb023;}.b{fill:#ffc05a;}.c{fill:#ad7d4d;}.d{fill:#008051;}.e{fill:#349966;}.f{fill:#e88604;}.g{fill:#ccb69a;}.h{fill:#e2792e;}</style></defs><g transform="translate(-24 -18.4)"><path class="a" d="M200,160h12.038v12.038H200Z" transform="translate(-167.724 -134.942)"/><g transform="translate(30.771 18.4)"><path class="b" d="M184.564,136h12.414a.566.566,0,0,1,.564.564h0a.566.566,0,0,1-.564.564H184.564a.566.566,0,0,1-.564-.564h0A.566.566,0,0,1,184.564,136Z" transform="translate(-183.248 -130.47)"/><path class="b" d="M168.752,184h.752v1.5h-.752a.752.752,0,1,1,0-1.5Z" transform="translate(-168 -176.213)"/><path class="b" d="M408.752,184h2.257a.755.755,0,0,1,.752.752h0a.755.755,0,0,1-.752.752h-2.257a.755.755,0,0,1-.752-.752h0A.755.755,0,0,1,408.752,184Z" transform="translate(-396.715 -176.213)"/><path class="b" d="M234.1,22.693l-.376-.376a1.436,1.436,0,0,1,0-2.036h0a.69.69,0,0,0,0-.973h0l-.376-.376.531-.531.376.376a1.436,1.436,0,0,1,0,2.036h0a.69.69,0,0,0,0,.973h0l.376.376Z" transform="translate(-230.229 -18.4)"/><path class="b" d="M314.1,22.693l-.376-.376a1.436,1.436,0,0,1,0-2.036h0a.69.69,0,0,0,0-.973h0l-.376-.376.531-.531.376.376a1.436,1.436,0,0,1,0,2.036h0a.69.69,0,0,0,0,.973h0l.376.376Z" transform="translate(-306.468 -18.4)"/><path class="b" d="M394.1,22.693l-.376-.376a1.436,1.436,0,0,1,0-2.036h0a.69.69,0,0,0,0-.973h0l-.376-.376.531-.531.376.376a1.436,1.436,0,0,1,0,2.036h0a.69.69,0,0,0,0,.973h0l.376.376Z" transform="translate(-382.706 -18.4)"/></g><path class="c" d="M24.752,456h15.8a.755.755,0,0,1,.752.752h0a.755.755,0,0,1-.752.752h-15.8a.755.755,0,0,1-.752-.752h0A.755.755,0,0,1,24.752,456Z" transform="translate(0 -417.023)"/><path class="d" d="M35.532,408.6a.938.938,0,0,1-.08,1.326.956.956,0,0,1-.625.235.94.94,0,1,1-1.458-.061.94.94,0,0,1-.555-1.208.959.959,0,0,1,.179-.3.939.939,0,0,1-.592-.7h3.724A.955.955,0,0,1,35.532,408.6Z" transform="translate(-8.005 -371.185)"/><path class="e" d="M27.762,332.037a.94.94,0,1,1-1.881,0,.94.94,0,1,1-1.27-.879.938.938,0,0,1,.08-1.326.956.956,0,0,1,.625-.235.94.94,0,1,1,1.458.061.94.94,0,0,1,.555,1.208.959.959,0,0,1-.179.3A.925.925,0,0,1,27.762,332.037Z" transform="translate(0 -295.129)"/><path class="f" d="M79.524,392.532H73.566A1.565,1.565,0,0,1,72,390.966h0a1.565,1.565,0,0,1,1.566-1.566,1.237,1.237,0,0,1,.23.019l5.727.856Z" transform="translate(-45.743 -353.555)"/><path class="g" d="M146.533,384v1.5h-1.881v1.881h-5.267A3.383,3.383,0,0,1,136,384Z" transform="translate(-106.733 -348.409)"/><path class="b" d="M144.652,386.821v.564h-5.267A3.383,3.383,0,0,1,136,384h.611a3.391,3.391,0,0,0,3.339,2.821Z" transform="translate(-106.733 -348.409)"/><path class="c" d="M360.376,376h5.267a.377.377,0,0,1,.376.376v1.5a.377.377,0,0,1-.376.376h-5.267a.377.377,0,0,1-.376-.376v-1.5A.377.377,0,0,1,360.376,376Z" transform="translate(-320.201 -340.785)"/><path class="f" d="M194.257,409.129a1.129,1.129,0,1,1-.451-.9A1.126,1.126,0,0,1,194.257,409.129Z" transform="translate(-160.1 -371.28)"/><path class="h" d="M224.776,413.7a1.136,1.136,0,0,1-.451.9,1.509,1.509,0,0,1,0-1.806A1.136,1.136,0,0,1,224.776,413.7Z" transform="translate(-190.619 -375.854)"/><path class="f" d="M234.257,409.129a1.129,1.129,0,1,1-.451-.9A1.126,1.126,0,0,1,234.257,409.129Z" transform="translate(-198.219 -371.28)"/><path class="h" d="M264.776,413.7a1.136,1.136,0,0,1-.451.9,1.509,1.509,0,0,1,0-1.806A1.136,1.136,0,0,1,264.776,413.7Z" transform="translate(-228.738 -375.854)"/><circle class="f" cx="1.129" cy="1.129" r="1.129" transform="translate(35.662 36.72)"/></g></svg>