<svg xmlns="http://www.w3.org/2000/svg" width="22.402" height="22.402" viewBox="0 0 22.402 22.402"><defs><style>.a{fill:#f0de9c;}.b{fill:#f6d0b1;}.c{fill:#ffb023;}.d{fill:#f0c033;}.e{fill:#f4c396;}</style></defs><g transform="translate(-16 -24)"><path class="a" d="M225.139,24a1.136,1.136,0,0,1,1.139,1.139v1.139H224V25.139A1.136,1.136,0,0,1,225.139,24Z" transform="translate(-198.128)"/><path class="b" d="M75.7,329.78l.095.119,2.658.759h1.139l-1.9-1.9h1.049a3.875,3.875,0,0,1,2.748,1.139h1.78a3.023,3.023,0,0,1,2.15.892l3.664,3.664H84.53l-1.139-1.139H78.835l-4.556-1.9L72,328A4.747,4.747,0,0,1,75.7,329.78Z" transform="translate(-53.342 -289.571)"/><path class="c" d="M320.353,396.936h-7.214L312,395.8l3.8-3.8,4.556,4.556Z" transform="translate(-281.951 -350.534)"/><path class="d" d="M226.278,56.043v.693H224v-.693A9.626,9.626,0,0,1,226.278,56.043Z" transform="translate(-198.128 -30.457)"/><path class="a" d="M56,73.113c0-.128,0-.256.009-.38a9.111,9.111,0,0,1,18.207,0c0,.123.009.252.009.38Z" transform="translate(-38.101 -38.101)"/><g transform="translate(17.899 27.702)"><path class="d" d="M309.521,103.063a6.85,6.85,0,0,0-.721-.365l.3-.7a7.847,7.847,0,0,1,.8.4l-.38.66Z" transform="translate(-296.801 -102)"/><path class="d" d="M341.217,124.733a7.3,7.3,0,0,0-2.117-2.525l.456-.608a8.056,8.056,0,0,1,2.34,2.791l-.679.342Z" transform="translate(-325.663 -120.67)"/><path class="d" d="M56,248.38c0-.128,0-.256.009-.38H74.221c0,.123.009.252.009.38Z" transform="translate(-56 -241.07)"/></g><path class="a" d="M38.023,256h0a2.279,2.279,0,0,1-2.278,2.278H18.278A2.279,2.279,0,0,1,16,256Z" transform="translate(0 -220.989)"/><path class="d" d="M16.888,256a2.278,2.278,0,0,0,2.15,1.519H36.5a2.273,2.273,0,0,0,1.187-.332,2.274,2.274,0,0,1-1.946,1.092H18.278A2.279,2.279,0,0,1,16,256Z" transform="translate(0 -220.989)"/><path class="e" d="M210.473,384l.759.759-.536.536-1.3-1.3Z" transform="translate(-184.221 -342.913)"/></g></svg>