<?xml version="1.0" encoding="iso-8859-1"?>
<!-- Generator: Adobe Illustrator 19.0.0, SVG Export Plug-In . SVG Version: 6.00 Build 0)  -->
<svg version="1.1" id="Capa_1" xmlns="http://www.w3.org/2000/svg" xmlns:xlink="http://www.w3.org/1999/xlink" x="0px" y="0px"
	 viewBox="0 0 512 512" style="enable-background:new 0 0 512 512;" xml:space="preserve">
<g>
	<g>
		<g>
			<path d="M256,85.333c-94.104,0-170.667,76.563-170.667,170.667S161.896,426.667,256,426.667S426.667,350.104,426.667,256
				S350.104,85.333,256,85.333z M149.333,256c0,5.896-4.771,10.667-10.667,10.667c-5.896,0-10.667-4.771-10.667-10.667
				c0-70.583,57.417-128,128-128c5.896,0,10.667,4.771,10.667,10.667c0,5.896-4.771,10.667-10.667,10.667
				C197.188,149.333,149.333,197.188,149.333,256z M384,256c0,70.583-57.417,128-128,128c-5.896,0-10.667-4.771-10.667-10.667
				c0-5.896,4.771-10.667,10.667-10.667c58.813,0,106.667-47.854,106.667-106.667c0-5.896,4.771-10.667,10.667-10.667
				C379.229,245.333,384,250.104,384,256z"/>
			<path d="M501.333,85.333c-29.417,0-53.333,23.927-53.333,53.333V256c0,17.646,14.354,32,32,32h10.667v128
				c0,5.896,4.771,10.667,10.667,10.667c5.896,0,10.667-4.771,10.667-10.667V96C512,90.104,507.229,85.333,501.333,85.333z"/>
			<path d="M85.333,96c0-5.896-4.771-10.667-10.667-10.667C68.771,85.333,64,90.104,64,96v96c0,7.794-4.408,14.332-10.667,18.056V96
				c0-5.896-4.771-10.667-10.667-10.667C36.771,85.333,32,90.104,32,96v114.056c-6.259-3.724-10.667-10.262-10.667-18.056V96
				c0-5.896-4.771-10.667-10.667-10.667C4.771,85.333,0,90.104,0,96v96c0,19.826,13.654,36.382,32,41.151V416
				c0,5.896,4.771,10.667,10.667,10.667c5.896,0,10.667-4.771,10.667-10.667V233.151c18.346-4.77,32-21.326,32-41.151V96z"/>
		</g>
	</g>
</g>
<g>
</g>
<g>
</g>
<g>
</g>
<g>
</g>
<g>
</g>
<g>
</g>
<g>
</g>
<g>
</g>
<g>
</g>
<g>
</g>
<g>
</g>
<g>
</g>
<g>
</g>
<g>
</g>
<g>
</g>
</svg>
