<?xml version="1.0" encoding="iso-8859-1"?>
<!-- Generator: Adobe Illustrator 19.0.0, SVG Export Plug-In . SVG Version: 6.00 Build 0)  -->
<svg  fill="none" version="1.1" id="Capa_1" xmlns="http://www.w3.org/2000/svg" xmlns:xlink="http://www.w3.org/1999/xlink" x="0px" y="0px"
	 viewBox="0 0 512 512" style="enable-background:new 0 0 512 512;" xml:space="preserve">
<g>
	<g>
		<path d="M469.333,64H42.667C19.146,64,0,83.135,0,106.667v160c0,5.896,4.771,10.667,10.667,10.667
			c18.708,0,28.75-6.969,36.813-12.573c7.042-4.896,12.625-8.76,24.646-8.76s17.604,3.865,24.646,8.76
			c8.063,5.604,18.104,12.573,36.792,12.573s28.729-6.979,36.771-12.583c7.042-4.885,12.604-8.75,24.583-8.75
			c11.979,0,17.542,3.865,24.583,8.76c1.391,0.969,2.957,1.986,4.5,2.993v108.204l-66.938,19.115
			c-4.563,1.313-7.729,5.5-7.729,10.26v32c0,5.896,4.771,10.667,10.667,10.667h192c5.896,0,10.667-4.771,10.667-10.667v-32
			c0-4.76-3.167-8.948-7.729-10.26L288,375.958V268.086c1.738-1.118,3.454-2.249,5-3.326c7.042-4.896,12.604-8.76,24.583-8.76
			c11.958,0,17.5,3.865,24.521,8.75c8.063,5.604,18.083,12.583,36.75,12.583c18.646,0,28.646-6.979,36.688-12.583
			c7-4.885,12.542-8.75,24.479-8.75c12,0,17.542,3.865,24.583,8.76c8.042,5.604,18.063,12.573,36.729,12.573
			c5.896,0,10.667-4.771,10.667-10.667v-160C512,83.135,492.854,64,469.333,64z M341.333,413.375v13.292H170.667v-13.292
			l66.938-19.115c4.563-1.313,7.729-5.5,7.729-10.26V276.305c3.324,0.578,6.835,1.029,10.917,1.029
			c3.895,0,7.214-0.452,10.417-0.982V384c0,4.76,3.167,8.948,7.729,10.26L341.333,413.375z M490.667,254.667
			c-5.438-1.531-9.354-4.26-13.875-7.417c-8.063-5.604-18.083-12.583-36.771-12.583c-18.646,0-28.646,6.979-36.688,12.583
			c-7,4.885-12.542,8.75-24.479,8.75c-11.979,0-17.521-3.865-24.542-8.76c-8.063-5.604-18.063-12.573-36.729-12.573
			c-18.688,0-28.708,6.969-36.75,12.573c-7.042,4.896-12.604,8.76-24.583,8.76s-17.542-3.865-24.583-8.76
			c-8.042-5.604-18.063-12.573-36.75-12.573c-18.667,0-28.708,6.969-36.75,12.573c-7.042,4.896-12.604,8.76-24.604,8.76
			c-12.021,0-17.583-3.865-24.625-8.76c-8.063-5.604-18.104-12.573-36.813-12.573s-28.75,6.969-36.813,12.573
			c-4.563,3.167-8.5,5.906-13.979,7.438v-148.01c0-11.76,9.563-21.333,21.333-21.333h426.667c11.771,0,21.333,9.573,21.333,21.333
			V254.667z"/>
	</g>
</g>
<g>
</g>
<g>
</g>
<g>
</g>
<g>
</g>
<g>
</g>
<g>
</g>
<g>
</g>
<g>
</g>
<g>
</g>
<g>
</g>
<g>
</g>
<g>
</g>
<g>
</g>
<g>
</g>
<g>
</g>
</svg>
