<svg id="Capa_1" enable-background="new 0 0 512 512" height="512" viewBox="0 0 512 512" width="512" xmlns="http://www.w3.org/2000/svg"><g><path d="m445.55 39.57-34.08 171.36-14.71-2.93h-281.52l-14.71 2.93-34.08-171.36h18.28c25.48 0 38.71 7.75 50.39 14.59 10 5.86 17.9 10.48 35.24 10.48s25.24-4.62 35.24-10.48c11.68-6.84 24.92-14.59 50.39-14.59h.01c25.47 0 38.71 7.75 50.39 14.59 10 5.86 17.9 10.48 35.24 10.48s25.24-4.62 35.24-10.48c11.68-6.84 24.92-14.59 50.4-14.59z" fill="#fef1f2"/><path d="m445.55 39.57-34.08 171.36-14.71-2.93h-140.76v-168.43c25.47 0 38.71 7.75 50.39 14.59 10 5.86 17.9 10.48 35.24 10.48s25.24-4.62 35.24-10.48c11.68-6.84 24.92-14.59 50.4-14.59z" fill="#ebdfd9"/><g><path d="m291.454 170.096h63.176v30.001h-63.176z" fill="#e0c3b8" transform="matrix(.127 -.992 .992 .127 98.57 482.13)"/><path d="m173.957 153.508h30v63.176h-30z" fill="#ebdfd9" transform="matrix(.992 -.127 .127 .992 -21.895 25.388)"/></g><path d="m241 126.06h30v90.37h-30z" fill="#ebdfd9"/><path d="m256 126.06h15v90.37h-15z" fill="#e0c3b8"/><path d="m0 201.43h512v271h-512z" fill="#79d5fa"/><path d="m256 201.43h256v271h-256z" fill="#4bbbf0"/><path d="m82.76 271.34h346.48v131.19h-346.48z" fill="#39689e"/><path d="m256 271.34h173.24v131.19h-173.24z" fill="#224370"/></g></svg>