<svg xmlns="http://www.w3.org/2000/svg" width="23.412" height="23.412" viewBox="0 0 23.412 23.412"><defs><style>.a{fill:#ffc569;}.b{fill:#ffc466;}.c{fill:#fff5e6;}.d{fill:#fff;}.e{fill:#ffb023;}.f{fill:#ffb743;}.g{fill:#ffb948;}</style></defs><path class="a" d="M133.853,0,128,11.706l5.853,11.706a11.706,11.706,0,0,0,0-23.412Z" transform="translate(-122.147)"/><path class="b" d="M0,11.706A11.705,11.705,0,0,0,11.706,23.412V0A11.705,11.705,0,0,0,0,11.706Z"/><path class="c" d="M162.481,60,158,68.962l4.481,8.962a8.962,8.962,0,0,0,0-17.925Z" transform="translate(-150.775 -57.256)"/><path class="d" d="M60,68.962a8.965,8.965,0,0,0,8.962,8.962V60A8.965,8.965,0,0,0,60,68.962Z" transform="translate(-57.256 -57.256)"/><path class="e" d="M238.853,236.739l-1.939-1.939H236l.915,1.939.969.969Z" transform="translate(-225.208 -224.063)"/><path class="f" d="M150.569,149.6l-.969.969,4.865,4.865V153.5Z" transform="translate(-142.759 -142.759)"/><path class="f" d="M240.829,149.2l-3.914,3.914L236,155.053h.915l4.884-4.884Z" transform="translate(-225.208 -142.378)"/><path class="g" d="M213.6,236.739l.969.969.969-.969V234.8Z" transform="translate(-203.833 -224.063)"/><path class="e" d="M247.143,90h-.686l-.457.686.457.686h.686Z" transform="translate(-234.751 -85.885)"/><path class="f" d="M241,90h.686v1.372H241Z" transform="translate(-229.98 -85.885)"/><path class="e" d="M247.143,392h-.686l-.457.686.457.686h.686Z" transform="translate(-234.751 -374.075)"/><path class="f" d="M241,392h.686v1.372H241Z" transform="translate(-229.98 -374.075)"/><path class="f" d="M90,242.372V241h1.372v1.372Z" transform="translate(-85.885 -229.98)"/><path class="e" d="M392,242.372V241h1.372v1.372Z" transform="translate(-374.075 -229.98)"/></svg>